<?xml version="1.0" encoding="UTF-8"?>
<svg width="728px" height="262px" viewBox="0 0 728 262" version="1.1" xmlns="http://www.w3.org/2000/svg" xmlns:xlink="http://www.w3.org/1999/xlink">
    <title>Logo-Binus Square</title>
    <g id="Logo-Binus-Square" stroke="none" stroke-width="1" fill="none" fill-rule="evenodd">
        <g id="Group-16">
            <g id="Group-14">
                <path d="M150.7695,237.2958 C150.7695,235.1958 149.5595,234.1388 147.1355,234.1388 L141.4095,234.1388 L141.4095,240.5408 L147.2115,240.5408 C149.5795,240.5408 150.7695,239.4508 150.7695,237.2958 M155.8945,237.1988 C155.8945,239.9478 155.0325,242.0318 153.3335,243.4578 C151.7675,244.7238 149.6195,245.3728 146.8875,245.3728 L141.4095,245.3728 L141.4095,254.2028 L136.4295,254.2028 L136.4295,229.3058 L147.3155,229.3058 C149.8085,229.3058 151.8195,229.9548 153.3625,231.2538 C155.0485,232.6798 155.8945,234.6588 155.8945,237.1988" id="Fill-1" fill="#1A1919"/>
                <path d="M170.3066,242.7441 C170.2306,241.8311 169.9336,241.0541 169.4096,240.4361 C168.7796,239.7401 167.9546,239.3951 166.9206,239.3951 C166.0556,239.3951 165.3496,239.7161 164.7926,240.3481 C164.2476,240.9661 163.9316,241.7831 163.8316,242.7441 L170.3066,242.7441 Z M175.0706,244.8681 C175.0706,245.4451 175.0506,245.9811 175.0026,246.4461 L163.8316,246.4461 C163.8956,247.6171 164.3366,248.5391 165.1416,249.1391 C165.8396,249.7001 166.6766,249.9731 167.6736,249.9731 C169.0406,249.9731 170.1106,249.5311 170.8756,248.6421 L174.3696,251.5751 C173.6196,252.5131 172.6466,253.2591 171.4246,253.7951 C170.2026,254.3321 168.9486,254.5801 167.6736,254.5801 C164.9936,254.5801 162.8536,253.7151 161.2756,251.9601 C159.6726,250.2131 158.8706,247.8491 158.8706,244.8681 C158.8706,242.0321 159.6726,239.6831 161.2466,237.8561 C162.8256,236.0381 164.8136,235.1321 167.2016,235.1321 C169.6256,235.1321 171.5606,236.0941 173.0106,238.0091 C174.3776,239.8281 175.0706,242.1121 175.0706,244.8681 L175.0706,244.8681 Z" id="Fill-3" fill="#1A1919"/>
                <path d="M189.9111,244.8681 C189.9111,243.3861 189.6071,242.1761 189.0181,241.2461 C188.4291,240.3241 187.5591,239.8601 186.4211,239.8601 C185.2871,239.8601 184.4181,240.3241 183.8371,241.2221 C183.2641,242.1431 182.9721,243.3611 182.9721,244.8681 C182.9721,246.3821 183.2601,247.5601 183.8291,248.4501 C184.4181,249.3801 185.2871,249.8691 186.4211,249.8691 C187.5431,249.8691 188.4211,249.3551 189.0581,248.3381 C189.6231,247.4321 189.9111,246.2861 189.9111,244.8681 M194.8921,244.8681 C194.8921,247.7211 194.0901,250.0531 192.4881,251.8801 C190.8851,253.6831 188.8691,254.5801 186.4211,254.5801 C183.9771,254.5801 181.9621,253.6831 180.3831,251.8801 C178.7851,250.0531 177.9921,247.7211 177.9921,244.8681 C177.9921,242.0321 178.7851,239.6831 180.3831,237.8561 C181.9621,236.0381 183.9771,235.1321 186.4211,235.1321 C188.8691,235.1321 190.8851,236.0381 192.4881,237.8561 C194.0901,239.6831 194.8921,242.0321 194.8921,244.8681" id="Fill-5" fill="#1A1919"/>
                <path d="M209.8369,245.204 C209.8369,241.583 208.7709,239.756 206.6359,239.756 C205.4209,239.756 204.4159,240.261 203.5989,241.318 L203.5989,248.361 C204.3919,249.435 205.4899,249.973 206.9159,249.973 C208.8639,249.973 209.8369,248.387 209.8369,245.204 M214.8169,245.093 C214.8169,247.953 214.1799,250.213 212.9299,251.921 C211.6199,253.691 209.8369,254.58 207.5569,254.58 C205.9909,254.58 204.6719,254.123 203.5989,253.13 L203.5989,258.628 L198.6939,261.08 L198.6939,235.524 L203.5989,235.524 L203.5989,236.694 C204.7959,235.644 206.1149,235.132 207.5569,235.132 C209.6969,235.132 211.3959,235.909 212.6819,237.479 C214.1039,239.235 214.8169,241.783 214.8169,245.093" id="Fill-7" fill="#1A1919"/>
                <polygon id="Fill-9" fill="#1A1919" points="223.7803 254.203 218.8723 254.203 218.8723 230.749 223.7803 228.305"/>
                <path d="M239.2271,242.7441 C239.1551,241.8311 238.8541,241.0541 238.3291,240.4361 C237.6961,239.7401 236.8741,239.3951 235.8411,239.3951 C234.9791,239.3951 234.2661,239.7161 233.7211,240.3481 C233.1721,240.9661 232.8441,241.7831 232.7521,242.7441 L239.2271,242.7441 Z M243.9951,244.8681 C243.9951,245.4451 243.9671,245.9811 243.9141,246.4461 L232.7521,246.4461 C232.8121,247.6171 233.2601,248.5391 234.0661,249.1391 C234.7471,249.7001 235.5921,249.9731 236.5981,249.9731 C237.9771,249.9731 239.0351,249.5311 239.7911,248.6421 L243.2811,251.5751 C242.5441,252.5131 241.5621,253.2591 240.3491,253.7951 C239.1231,254.3321 237.8721,254.5801 236.5981,254.5801 C233.9141,254.5801 231.7741,253.7151 230.1871,251.9601 C228.6051,250.2131 227.7991,247.8491 227.7991,244.8681 C227.7991,242.0321 228.5891,239.6831 230.1751,237.8561 C231.7501,236.0381 233.7381,235.1321 236.1331,235.1321 C238.5531,235.1321 240.4841,236.0941 241.9231,238.0091 C243.3101,239.8281 243.9951,242.1121 243.9951,244.8681 L243.9951,244.8681 Z" id="Fill-11" fill="#1A1919"/>
                <path d="M253.667,251.247 C253.667,252.161 253.342,252.937 252.669,253.587 C252.016,254.26 251.227,254.58 250.33,254.58 C249.42,254.58 248.643,254.26 247.977,253.587 C247.312,252.937 246.988,252.161 246.988,251.247 C246.988,250.35 247.312,249.564 247.977,248.898 C248.643,248.242 249.42,247.897 250.33,247.897 C251.227,247.897 252.016,248.242 252.669,248.898 C253.342,249.564 253.667,250.35 253.667,251.247" id="Fill-13" fill="#1A1919"/>
                <polygon id="Fill-15" fill="#1A1919" points="269.0482 254.2026 274.0172 254.2026 274.0172 229.3056 269.0482 229.3056"/>
                <path d="M296.1548,254.203 L291.2498,254.203 L291.2498,244.075 C291.2498,242.488 290.9778,241.35 290.4608,240.717 C289.9438,240.076 289.1508,239.756 288.0808,239.756 C285.9378,239.756 284.8798,241.158 284.8798,243.978 L284.8798,254.203 L279.9678,254.203 L279.9678,235.524 L284.8798,235.524 L284.8798,236.766 C285.9168,235.661 287.3798,235.132 289.2548,235.132 C293.8548,235.132 296.1548,237.976 296.1548,243.682 L296.1548,254.203 Z" id="Fill-17" fill="#1A1919"/>
                <path d="M316.9375,254.203 L312.0205,254.203 L312.0205,244.075 C312.0205,242.488 311.7565,241.35 311.2445,240.717 C310.7185,240.076 309.9255,239.756 308.8595,239.756 C306.7285,239.756 305.6585,241.158 305.6585,243.978 L305.6585,254.203 L300.7465,254.203 L300.7465,235.524 L305.6585,235.524 L305.6585,236.766 C306.7005,235.661 308.1545,235.132 310.0335,235.132 C314.6255,235.132 316.9375,237.976 316.9375,243.682 L316.9375,254.203 Z" id="Fill-18" fill="#1A1919"/>
                <path d="M332.4839,244.8681 C332.4839,243.3861 332.1909,242.1761 331.5899,241.2461 C331.0009,240.3241 330.1279,239.8601 328.9939,239.8601 C327.8599,239.8601 326.9989,240.3241 326.4139,241.2221 C325.8289,242.1431 325.5359,243.3611 325.5359,244.8681 C325.5359,246.3821 325.8289,247.5601 326.3979,248.4501 C326.9949,249.3801 327.8599,249.8691 328.9939,249.8691 C330.1119,249.8691 330.9889,249.3551 331.6269,248.3381 C332.1999,247.4321 332.4839,246.2861 332.4839,244.8681 M337.4639,244.8681 C337.4639,247.7211 336.6669,250.0531 335.0599,251.8801 C333.4619,253.6831 331.4379,254.5801 328.9939,254.5801 C326.5539,254.5801 324.5389,253.6831 322.9519,251.8801 C321.3569,250.0531 320.5639,247.7211 320.5639,244.8681 C320.5639,242.0321 321.3569,239.6831 322.9519,237.8561 C324.5389,236.0381 326.5539,235.1321 328.9939,235.1321 C331.4379,235.1321 333.4619,236.0381 335.0599,237.8561 C336.6669,239.6831 337.4639,242.0321 337.4639,244.8681" id="Fill-19" fill="#1A1919"/>
                <path d="M358.2793,235.5243 L351.5523,254.2033 L346.4953,254.2033 L339.7803,235.5243 L345.1853,235.5243 L347.9223,244.1553 C348.4433,245.8293 348.8353,247.1923 349.0963,248.2503 C349.3203,247.3123 349.7093,245.9503 350.2693,244.1553 L353.0143,235.5243 L358.2793,235.5243 Z" id="Fill-20" fill="#1A1919"/>
                <path d="M371.8657,248.7304 L371.8657,246.3814 C371.0437,245.8624 369.9027,245.5884 368.4517,245.5884 C366.5537,245.5884 365.6077,246.3814 365.6077,247.9534 C365.6077,249.5954 366.5537,250.4374 368.4517,250.4374 C370.0297,250.4374 371.1837,249.8694 371.8657,248.7304 L371.8657,248.7304 Z M376.7817,254.2034 L371.8657,254.2034 L371.8657,252.9614 C370.8287,254.0514 369.4267,254.5804 367.6627,254.5804 C365.7797,254.5804 364.1777,254.0514 362.8667,252.9614 C361.4247,251.7354 360.6997,250.0684 360.6997,247.9534 C360.6997,245.9504 361.4317,244.3954 362.9027,243.2814 C364.2487,242.2634 366.0477,241.7434 368.2797,241.7434 C369.6747,241.7434 370.8717,242.0004 371.8657,242.5114 L371.8657,241.5834 C371.8657,240.8774 371.6367,240.3164 371.1797,239.8604 C370.7197,239.4184 370.0477,239.1874 369.2017,239.1874 C367.3307,239.1874 365.6157,239.5874 364.0847,240.4364 L362.1897,237.0064 C364.3817,235.7564 366.7137,235.1314 369.2017,235.1314 C371.4967,235.1314 373.3407,235.7094 374.7227,236.8544 C376.0957,238.0084 376.7817,239.6114 376.7817,241.6874 L376.7817,254.2034 Z" id="Fill-21" fill="#1A1919"/>
                <path d="M392.5083,248.4589 L391.7913,253.4589 C390.8263,254.2289 389.5553,254.5799 387.9923,254.5799 C386.4903,254.5799 385.2973,254.0759 384.3753,253.0099 C383.4613,251.9829 383.0083,250.6459 383.0083,248.9709 L383.0083,240.1479 L379.8753,240.1479 L379.8753,235.5239 L383.0083,235.5239 L383.0083,230.7319 L387.9123,228.3049 L387.9123,235.5239 L392.4013,235.5239 L392.4013,240.1479 L387.9123,240.1479 L387.9123,247.6569 C387.9123,249.1389 388.5293,249.9079 389.7353,249.9079 C390.4653,249.9079 391.3913,249.4119 392.5083,248.4589" id="Fill-22" fill="#1A1919"/>
                <path d="M397.2412,254.2026 L402.1532,254.2026 L402.1532,235.5236 L397.2412,235.5236 L397.2412,254.2026 Z M402.5062,231.1816 C402.5062,231.9346 402.2292,232.5916 401.6682,233.1686 C401.1162,233.7056 400.4532,233.9866 399.6962,233.9866 C398.9342,233.9866 398.2822,233.7056 397.7172,233.1686 C397.1602,232.5916 396.8852,231.9346 396.8852,231.1816 C396.8852,230.4276 397.1602,229.7706 397.7172,229.2016 C398.2822,228.6646 398.9342,228.3766 399.6962,228.3766 C400.4532,228.3766 401.1162,228.6646 401.6682,229.2016 C402.2292,229.7706 402.5062,230.4276 402.5062,231.1816 L402.5062,231.1816 Z" id="Fill-23" fill="#1A1919"/>
                <path d="M418.0474,244.8681 C418.0474,243.3861 417.7624,242.1761 417.1664,241.2461 C416.5724,240.3241 415.6994,239.8601 414.5654,239.8601 C413.4364,239.8601 412.5704,240.3241 411.9854,241.2221 C411.4124,242.1431 411.1234,243.3611 411.1234,244.8681 C411.1234,246.3821 411.4084,247.5601 411.9654,248.4501 C412.5594,249.3801 413.4364,249.8691 414.5654,249.8691 C415.6924,249.8691 416.5574,249.3551 417.1974,248.3381 C417.7664,247.4321 418.0474,246.2861 418.0474,244.8681 M423.0354,244.8681 C423.0354,247.7211 422.2384,250.0531 420.6394,251.8801 C419.0334,253.6831 417.0104,254.5801 414.5654,254.5801 C412.1254,254.5801 410.1024,253.6831 408.5204,251.8801 C406.9324,250.0531 406.1314,247.7211 406.1314,244.8681 C406.1314,242.0321 406.9324,239.6831 408.5204,237.8561 C410.1024,236.0381 412.1254,235.1321 414.5654,235.1321 C417.0104,235.1321 419.0334,236.0381 420.6394,237.8561 C422.2384,239.6831 423.0354,242.0321 423.0354,244.8681" id="Fill-24" fill="#1A1919"/>
                <path d="M443.0415,254.203 L438.1295,254.203 L438.1295,244.075 C438.1295,242.488 437.8525,241.35 437.3445,240.717 C436.8185,240.076 436.0255,239.756 434.9595,239.756 C432.8245,239.756 431.7545,241.158 431.7545,243.978 L431.7545,254.203 L426.8385,254.203 L426.8385,235.524 L431.7545,235.524 L431.7545,236.766 C432.7955,235.661 434.2585,235.132 436.1315,235.132 C440.7385,235.132 443.0415,237.976 443.0415,243.682 L443.0415,254.203 Z" id="Fill-25" fill="#1A1919"/>
                <path d="M453.4243,251.247 C453.4243,252.161 453.0903,252.937 452.4303,253.587 C451.7643,254.26 450.9753,254.58 450.0803,254.58 C449.1843,254.58 448.3913,254.26 447.7353,253.587 C447.0653,252.937 446.7293,252.161 446.7293,251.247 C446.7293,250.35 447.0653,249.564 447.7353,248.898 C448.3913,248.242 449.1843,247.897 450.0803,247.897 C450.9753,247.897 451.7643,248.242 452.4303,248.898 C453.0903,249.564 453.4243,250.35 453.4243,251.247" id="Fill-26" fill="#1A1919"/>
                <polygon id="Fill-27" fill="#1A1919" points="486.27 254.203 468.436 254.203 468.436 229.306 485.733 229.306 485.733 234.17 473.424 234.17 473.424 238.474 480.573 238.474 480.573 243.298 473.424 243.298 473.424 249.324 486.27 249.324"/>
                <path d="M508.0064,254.203 L502.1784,254.203 L500.2814,251.11 C499.5494,249.932 498.9854,248.898 498.5744,248.082 C498.3154,248.642 497.7424,249.66 496.8634,251.11 L494.9884,254.203 L489.1474,254.203 L495.7624,244.075 L490.1414,235.524 L495.9794,235.524 L496.8634,237.047 C497.3244,237.808 497.8834,238.818 498.5744,240.076 C498.7914,239.668 499.3524,238.666 500.2814,237.047 L501.1624,235.524 L507.0044,235.524 L501.3914,244.075 L508.0064,254.203 Z" id="Fill-28" fill="#1A1919"/>
                <path d="M526.6157,250.4374 C524.5257,253.2094 521.9827,254.5804 518.9577,254.5804 C516.4967,254.5804 514.4267,253.6744 512.7307,251.8484 C511.0567,250.0374 510.2117,247.7124 510.2117,244.8684 C510.2117,242.0324 511.0567,239.6834 512.7307,237.8564 C514.4267,236.0384 516.5607,235.1314 519.1787,235.1314 C522.3067,235.1314 524.7757,236.4944 526.5827,239.2674 L523.3367,242.5204 C522.0827,240.7494 520.6567,239.8604 519.0647,239.8604 C517.8867,239.8604 516.9417,240.3244 516.2367,241.2224 C515.5397,242.1434 515.1877,243.3614 515.1877,244.8684 C515.1877,246.3814 515.5437,247.5844 516.2567,248.4904 C516.9727,249.4124 517.9147,249.8694 519.0647,249.8694 C520.6837,249.8694 522.1547,249.0764 523.4727,247.4884 L526.6157,250.4374 Z" id="Fill-29" fill="#1A1919"/>
                <path d="M540.77,242.7441 C540.694,241.8311 540.401,241.0541 539.872,240.4361 C539.256,239.7401 538.418,239.3951 537.397,239.3951 C536.532,239.3951 535.823,239.7161 535.272,240.3481 C534.723,240.9661 534.391,241.7831 534.291,242.7441 L540.77,242.7441 Z M545.545,244.8681 C545.545,245.4451 545.518,245.9811 545.469,246.4461 L534.291,246.4461 C534.368,247.6171 534.803,248.5391 535.614,249.1391 C536.303,249.7001 537.141,249.9731 538.143,249.9731 C539.524,249.9731 540.573,249.5311 541.342,248.6421 L544.825,251.5751 C544.092,252.5131 543.124,253.2591 541.897,253.7951 C540.666,254.3321 539.424,254.5801 538.143,254.5801 C535.465,254.5801 533.331,253.7151 531.739,251.9601 C530.141,250.2131 529.35,247.8491 529.35,244.8681 C529.35,242.0321 530.141,239.6831 531.711,237.8561 C533.301,236.0381 535.28,235.1321 537.678,235.1321 C540.092,235.1321 542.036,236.0941 543.475,238.0091 C544.854,239.8281 545.545,242.1121 545.545,244.8681 L545.545,244.8681 Z" id="Fill-30" fill="#1A1919"/>
                <polygon id="Fill-31" fill="#1A1919" points="554.5142 254.203 549.6022 254.203 549.6022 230.749 554.5142 228.305"/>
                <polygon id="Fill-32" fill="#1A1919" points="564.5376 254.203 559.6316 254.203 559.6316 230.749 564.5376 228.305"/>
                <path d="M579.9751,242.7441 C579.9161,241.8311 579.6121,241.0541 579.0821,240.4361 C578.4541,239.7401 577.6331,239.3951 576.5941,239.3951 C575.7331,239.3951 575.0281,239.7161 574.4751,240.3481 C573.9341,240.9661 573.6061,241.7831 573.5041,242.7441 L579.9751,242.7441 Z M584.7521,244.8681 C584.7521,245.4451 584.7291,245.9811 584.6761,246.4461 L573.5041,246.4461 C573.5771,247.6171 574.0221,248.5391 574.8191,249.1391 C575.5121,249.7001 576.3501,249.9731 577.3561,249.9731 C578.7271,249.9731 579.7911,249.5311 580.5531,248.6421 L584.0361,251.5751 C583.3011,252.5131 582.3291,253.2591 581.0981,253.7951 C579.8831,254.3321 578.6331,254.5801 577.3561,254.5801 C574.6741,254.5801 572.5281,253.7151 570.9541,251.9601 C569.3541,250.2131 568.5571,247.8491 568.5571,244.8681 C568.5571,242.0321 569.3461,239.6831 570.9341,237.8561 C572.5081,236.0381 574.4911,235.1321 576.8831,235.1321 C579.3031,235.1321 581.2351,236.0941 582.6901,238.0091 C584.0631,239.8281 584.7521,242.1121 584.7521,244.8681 L584.7521,244.8681 Z" id="Fill-33" fill="#1A1919"/>
                <path d="M604.8149,254.203 L599.9109,254.203 L599.9109,244.075 C599.9109,242.488 599.6509,241.35 599.1259,240.717 C598.6079,240.076 597.8069,239.756 596.7409,239.756 C594.6099,239.756 593.5439,241.158 593.5439,243.978 L593.5439,254.203 L588.6349,254.203 L588.6349,235.524 L593.5439,235.524 L593.5439,236.766 C594.5849,235.661 596.0399,235.132 597.9109,235.132 C602.5179,235.132 604.8149,237.976 604.8149,243.682 L604.8149,254.203 Z" id="Fill-34" fill="#1A1919"/>
                <path d="M624.8482,250.4374 C622.7602,253.2094 620.2112,254.5804 617.1962,254.5804 C614.7312,254.5804 612.6592,253.6744 610.9732,251.8484 C609.2932,250.0374 608.4442,247.7124 608.4442,244.8684 C608.4442,242.0324 609.2932,239.6834 610.9732,237.8564 C612.6592,236.0384 614.8072,235.1314 617.4112,235.1314 C620.5492,235.1314 623.0082,236.4944 624.8192,239.2674 L621.5712,242.5204 C620.3212,240.7494 618.8972,239.8604 617.3112,239.8604 C616.1252,239.8604 615.1842,240.3244 614.4752,241.2224 C613.7822,242.1434 613.4322,243.3614 613.4322,244.8684 C613.4322,246.3814 613.7892,247.5844 614.5022,248.4904 C615.2112,249.4124 616.1452,249.8694 617.3112,249.8694 C618.9262,249.8694 620.3932,249.0764 621.7112,247.4884 L624.8482,250.4374 Z" id="Fill-35" fill="#1A1919"/>
                <path d="M639.02,242.7441 C638.948,241.8311 638.639,241.0541 638.124,240.4361 C637.489,239.7401 636.659,239.3951 635.633,239.3951 C634.756,239.3951 634.059,239.7161 633.518,240.3481 C632.95,240.9661 632.633,241.7831 632.534,242.7441 L639.02,242.7441 Z M643.784,244.8681 C643.784,245.4451 643.76,245.9811 643.711,246.4461 L632.534,246.4461 C632.606,247.6171 633.045,248.5391 633.86,249.1391 C634.528,249.7001 635.389,249.9731 636.379,249.9731 C637.754,249.9731 638.821,249.5311 639.581,248.6421 L643.059,251.5751 C642.333,252.5131 641.36,253.2591 640.137,253.7951 C638.905,254.3321 637.663,254.5801 636.379,254.5801 C633.704,254.5801 631.559,253.7151 629.969,251.9601 C628.381,250.2131 627.596,247.8491 627.596,244.8681 C627.596,242.0321 628.374,239.6831 629.952,237.8561 C631.528,236.0381 633.524,235.1321 635.918,235.1321 C638.331,235.1321 640.274,236.0941 641.723,238.0091 C643.086,239.8281 643.784,242.1121 643.784,244.8681 L643.784,244.8681 Z" id="Fill-36" fill="#1A1919"/>
                <path d="M653.4595,251.247 C653.4595,252.161 653.1275,252.937 652.4575,253.587 C651.7935,254.26 651.0205,254.58 650.1195,254.58 C649.2095,254.58 648.4285,254.26 647.7705,253.587 C647.0965,252.937 646.7685,252.161 646.7685,251.247 C646.7685,250.35 647.0965,249.564 647.7705,248.898 C648.4285,248.242 649.2095,247.897 650.1195,247.897 C651.0205,247.897 651.7935,248.242 652.4575,248.898 C653.1275,249.564 653.4595,250.35 653.4595,251.247" id="Fill-37" fill="#1A1919"/>
                <path d="M167.2617,173.8446 L153.2377,173.8446 L153.2377,186.2656 L167.1727,186.2656 C171.5607,186.2656 173.5517,183.6136 173.5517,179.9586 C173.5517,176.2166 171.4717,173.8446 167.2617,173.8446 M166.5527,150.3406 L153.2377,150.3406 L153.2377,160.3656 L166.5527,160.3656 C170.6587,160.3656 172.1057,158.3696 172.1057,155.3736 C172.1057,152.5366 170.7427,150.3406 166.5527,150.3406 M166.9087,200.2166 L136.2967,200.2166 L136.2967,136.3896 L167.0767,136.3896 C182.9397,136.3896 189.4587,142.3346 189.4587,153.0006 C189.4587,159.9256 186.0567,163.0106 181.7617,165.4706 C187.5037,167.9306 190.8687,172.3856 190.8687,179.6066 C190.8687,192.6356 182.9397,200.2166 166.9087,200.2166" id="Fill-38" fill="#1A1919"/>
                <polygon id="Fill-39" fill="#1A1919" points="197.5482 200.2166 215.5702 200.2166 215.5702 136.3896 197.5482 136.3896"/>
                <path d="M265.9756,200.2167 L250.7776,179.1657 C247.9296,175.2547 242.4606,167.0407 240.8376,164.2037 C241.2826,167.0407 241.3906,175.4797 241.3906,180.7117 L241.3906,200.2167 L224.4136,200.2167 L224.4136,136.3897 L240.0196,136.3897 L254.0236,155.2617 C256.9806,159.2117 262.6216,167.6657 263.9806,170.3257 C263.5236,167.4737 263.4076,159.0117 263.4076,153.8267 L263.4076,136.3897 L280.3686,136.3897 L280.3686,200.2167 L265.9756,200.2167 Z" id="Fill-40" fill="#1A1919"/>
                <path d="M314.3892,201.2187 C298.3342,201.2187 286.5702,193.1897 286.5702,172.9477 L286.5702,136.3897 L304.6292,136.3897 L304.6292,172.9477 C304.6292,180.8007 307.7182,185.6247 314.6342,185.6247 C321.5692,185.6247 324.4782,180.8007 324.4782,172.9477 L324.4782,136.3897 L342.5362,136.3897 L342.5362,172.9477 C342.5362,193.1897 330.4162,201.2187 314.3892,201.2187" id="Fill-41" fill="#1A1919"/>
                <path d="M373.1607,201.2187 C362.8627,201.2187 352.9267,197.8447 346.2827,193.4697 L354.8417,179.6067 C359.4927,182.7877 367.5987,186.0007 373.5317,186.0007 C379.8147,186.0007 381.8227,184.8877 381.8227,181.8907 C381.8227,179.5017 379.5357,178.0677 370.9557,176.0647 C355.5587,172.5067 348.1657,168.3077 348.1657,155.5417 C348.1657,143.5137 357.9307,135.4197 373.3367,135.4197 C384.1897,135.4197 392.0157,138.0727 398.7697,142.7767 L390.2137,156.6397 C384.5477,152.8177 378.9187,150.6207 372.4267,150.6207 C367.1297,150.6207 365.8637,152.2647 365.8637,154.5397 C365.8637,156.9197 368.1397,158.0187 376.3367,159.9257 C392.3757,163.7557 399.4867,168.6847 399.4867,180.5837 C399.4867,195.1767 388.4577,201.2187 373.1607,201.2187" id="Fill-42" fill="#1A1919"/>
                <path d="M99.8399,124.8583 C113.3869,124.8583 124.4089,113.8313 124.4089,100.2803 C124.4089,86.7703 113.3869,75.7673 99.8399,75.7673 C86.3249,75.7673 75.3059,86.7703 75.3059,100.2803 C75.3059,113.8313 86.3249,124.8583 99.8399,124.8583" id="Fill-43" fill="#E9822C"/>
                <path d="M130.1548,53.0009 C130.1548,53.0009 133.0958,53.1379 134.9908,52.9209 C136.9138,52.7039 137.3348,52.0229 138.3088,51.8069 C139.1908,51.5829 139.8628,51.2299 139.8628,51.2299 L138.5168,50.9009 C138.5168,50.9009 136.6938,50.6859 135.1238,50.9009 C133.6528,51.1259 132.5548,51.3339 131.9298,51.8069 C131.3568,52.2639 130.1548,53.0009 130.1548,53.0009" id="Fill-45" fill="#6D6865"/>
                <path d="M131.1328,48.2411 C131.1328,48.2411 134.0938,46.6371 135.2318,46.3821 C136.3578,46.1651 138.6568,45.8041 140.1078,45.8041 C141.5298,45.8041 142.6198,46.1651 142.6198,46.1651 L143.4808,46.2541 C143.4808,46.2541 142.7278,46.3821 142.2108,46.7901 C141.6908,47.1831 141.4938,47.5361 140.2638,48.0241 C139.0658,48.4571 135.7568,48.9291 134.9028,48.9291 C134.0938,48.9291 133.0958,49.0101 132.4708,48.8341 C131.9018,48.6811 131.1328,48.2411 131.1328,48.2411" id="Fill-46" fill="#6D6865"/>
                <path d="M136.9141,54.3232 C136.9141,54.3232 141.3861,53.3382 142.8161,52.7042 C144.2541,52.1272 146.5581,52.1762 147.5761,52.1762 C148.5661,52.1762 152.2481,51.8062 152.2481,51.8062 C152.2481,51.8062 150.0281,52.7932 148.5661,53.5542 C147.0231,54.3232 144.5911,54.3952 143.1451,54.5712 C141.6901,54.6762 138.9861,54.6512 138.9861,54.6512 L136.9141,54.3232 Z" id="Fill-47" fill="#6D6865"/>
                <path d="M129.2456,45.9569 C129.2456,45.9569 130.9126,46.0849 132.4426,45.4039 C133.9296,44.7239 134.7666,44.2819 135.6766,44.1939 C136.6176,44.1219 138.0766,43.8729 138.0766,43.8729 L136.2966,43.3929 C136.2966,43.3929 134.3336,43.2969 133.4156,43.6009 C132.4706,43.8729 130.5916,45.0599 130.5916,45.0599 L129.2456,45.9569 Z" id="Fill-48" fill="#6D6865"/>
                <path d="M142.0186,49.8593 C142.7846,49.5143 143.8256,49.6913 144.8636,49.8593 C145.8656,50.0763 146.4306,50.0683 146.4306,50.0683 C146.4306,50.0683 145.9296,50.7653 145.1486,51.1733 C144.3186,51.6143 143.5176,51.5833 142.5596,51.3743 C141.6696,51.2613 141.2536,50.9013 141.3496,50.5733 C141.3856,50.2763 142.0186,49.8593 142.0186,49.8593" id="Fill-49" fill="#6D6865"/>
                <g id="Group-12" transform="translate(142.351200, 60.957600)" fill="#6D6865">
                    <polygon id="Fill-50" points="0 52.521 4.375 52.521 4.375 48.234 0 48.234"/>
                    <polygon id="Fill-51" points="16.187 52.521 20.562 52.521 20.562 48.234 16.187 48.234"/>
                    <polygon id="Fill-55" points="5.373 47.176 9.76 47.176 9.76 42.857 5.373 42.857"/>
                    <polygon id="Fill-56" points="10.798 47.176 15.137 47.176 15.137 42.857 10.798 42.857"/>
                    <polygon id="Fill-57" points="16.187 47.176 20.562 47.176 20.562 42.857 16.187 42.857"/>
                    <polygon id="Fill-59" points="0 41.854 4.375 41.854 4.375 37.536 0 37.536"/>
                    <polygon id="Fill-60" points="5.373 41.854 9.76 41.854 9.76 37.536 5.373 37.536"/>
                    <polygon id="Fill-61" points="5.373 36.486 9.76 36.486 9.76 32.175 5.373 32.175"/>
                    <polygon id="Fill-62" points="10.798 36.486 15.137 36.486 15.137 32.175 10.798 32.175"/>
                    <polygon id="Fill-63" points="16.187 36.486 20.562 36.486 20.562 32.175 16.187 32.175"/>
                    <polygon id="Fill-65" points="16.187 25.772 20.562 25.772 20.562 21.452 16.187 21.452"/>
                    <polygon id="Fill-70" points="10.798 20.411 15.137 20.411 15.137 16.092 10.798 16.092"/>
                    <polygon id="Fill-71" points="16.187 20.411 20.562 20.411 20.562 16.092 16.187 16.092"/>
                    <polygon id="Fill-72" points="16.187 15.05 20.562 15.05 20.562 10.723 16.187 10.723"/>
                    <polygon id="Fill-80" points="5.373 31.101 9.76 31.101 9.76 26.806 5.373 26.806"/>
                    <polygon id="Fill-81" points="10.798 31.101 15.137 31.101 15.137 26.806 10.798 26.806"/>
                    <polygon id="Fill-82" points="16.187 31.101 20.562 31.101 20.562 26.806 16.187 26.806"/>
                    <polygon id="Fill-91" points="16.187 41.854 20.562 41.854 20.562 37.536 16.187 37.536"/>
                    <polygon id="Fill-98" points="59.436 4.352 63.779 4.352 63.779 -5.1159077e-13 59.436 -5.1159077e-13"/>
                </g>
                <polygon id="Fill-52" fill="#1A1919" points="174.7622 101.2416 355.1982 101.2416 355.1982 98.8866 174.7622 98.8866"/>
                <polygon id="Fill-53" fill="#1A1919" points="129.3532 101.2416 141.3022 101.2416 141.3022 98.8866 129.3532 98.8866"/>
                <path d="M355.1983,103.8144 C357.2253,103.8144 358.9283,102.1074 358.9283,100.0554 C358.9283,97.9404 357.2253,96.2824 355.1983,96.2824 C353.1233,96.2824 351.4233,97.9404 351.4233,100.0554 C351.4233,102.1074 353.1233,103.8144 355.1983,103.8144" id="Fill-54" fill="#C6302E"/>
                <polygon id="Fill-58" fill="#6D6865" points="169.3452 108.1336 173.7202 108.1336 173.7202 103.8146 169.3452 103.8146"/>
                <polygon id="Fill-64" fill="#6D6865" points="163.9512 97.4436 168.3062 97.4436 168.3062 93.1326 163.9512 93.1326"/>
                <polygon id="Fill-66" fill="#6D6865" points="163.9512 86.7296 168.3062 86.7296 168.3062 82.4096 163.9512 82.4096"/>
                <polygon id="Fill-67" fill="#6D6865" points="174.7622 86.7296 179.1172 86.7296 179.1172 82.4096 174.7622 82.4096"/>
                <polygon id="Fill-68" fill="#6D6865" points="185.5642 86.7296 189.9432 86.7296 189.9432 82.4096 185.5642 82.4096"/>
                <polygon id="Fill-69" fill="#6D6865" points="185.5642 81.3686 189.9432 81.3686 189.9432 77.0496 185.5642 77.0496"/>
                <polygon id="Fill-73" fill="#6D6865" points="163.9512 81.3686 168.3062 81.3686 168.3062 77.0496 163.9512 77.0496"/>
                <polygon id="Fill-74" fill="#6D6865" points="169.3452 81.3686 173.7202 81.3686 173.7202 77.0496 169.3452 77.0496"/>
                <polygon id="Fill-75" fill="#6D6865" points="169.3452 76.0076 173.7202 76.0076 173.7202 71.6806 169.3452 71.6806"/>
                <polygon id="Fill-76" fill="#6D6865" points="174.7622 81.3686 179.1172 81.3686 179.1172 77.0496 174.7622 77.0496"/>
                <polygon id="Fill-77" fill="#6D6865" points="174.7622 70.6716 179.1172 70.6716 179.1172 66.3596 174.7622 66.3596"/>
                <polygon id="Fill-78" fill="#6D6865" points="174.7622 59.9566 179.1172 59.9566 179.1172 55.6206 174.7622 55.6206"/>
                <polygon id="Fill-79" fill="#6D6865" points="185.5642 70.6716 189.9432 70.6716 189.9432 66.3596 185.5642 66.3596"/>
                <polygon id="Fill-83" fill="#6D6865" points="163.9512 92.0586 168.3062 92.0586 168.3062 87.7636 163.9512 87.7636"/>
                <polygon id="Fill-84" fill="#6D6865" points="169.3452 92.0586 173.7202 92.0586 173.7202 87.7636 169.3452 87.7636"/>
                <polygon id="Fill-85" fill="#6D6865" points="174.7622 92.0586 179.1172 92.0586 179.1172 87.7636 174.7622 87.7636"/>
                <polygon id="Fill-86" fill="#6D6865" points="180.1432 92.0586 184.5182 92.0586 184.5182 87.7636 180.1432 87.7636"/>
                <polygon id="Fill-87" fill="#6D6865" points="180.1432 76.0076 184.5182 76.0076 184.5182 71.6806 180.1432 71.6806"/>
                <polygon id="Fill-88" fill="#6D6865" points="190.9772 92.0586 195.3372 92.0586 195.3372 87.7636 190.9772 87.7636"/>
                <polygon id="Fill-89" fill="#6D6865" points="190.9772 76.0076 195.3372 76.0076 195.3372 71.6806 190.9772 71.6806"/>
                <polygon id="Fill-90" fill="#6D6865" points="174.7622 97.4436 179.1172 97.4436 179.1172 93.1326 174.7622 93.1326"/>
                <polygon id="Fill-92" fill="#6D6865" points="163.9512 102.8116 168.3062 102.8116 168.3062 98.4936 163.9512 98.4936"/>
                <polygon id="Fill-93" fill="#6D6865" points="169.3452 102.8116 173.7202 102.8116 173.7202 98.4936 169.3452 98.4936"/>
                <polygon id="Fill-94" fill="#6D6865" points="212.5572 81.3686 216.9322 81.3686 216.9322 77.0496 212.5572 77.0496"/>
                <polygon id="Fill-95" fill="#6D6865" points="217.9742 54.6036 222.3492 54.6036 222.3492 50.2766 217.9742 50.2766"/>
                <polygon id="Fill-96" fill="#6D6865" points="180.1432 65.3096 184.5182 65.3096 184.5182 60.9576 180.1432 60.9576"/>
                <polygon id="Fill-97" fill="#6D6865" points="190.9772 65.3096 195.3372 65.3096 195.3372 60.9576 190.9772 60.9576"/>
                <polygon id="Fill-99" fill="#6D6865" points="201.7872 54.6036 206.1302 54.6036 206.1302 50.2766 201.7872 50.2766"/>
                <polygon id="Fill-100" fill="#6D6865" points="201.7872 49.2266 206.1302 49.2266 206.1302 44.8996 201.7872 44.8996"/>
                <polygon id="Fill-101" fill="#6D6865" points="201.7872 43.8726 206.1302 43.8726 206.1302 39.5786 201.7872 39.5786"/>
                <polygon id="Fill-102" fill="#6D6865" points="207.1692 38.5206 211.5242 38.5206 211.5242 34.1936 207.1692 34.1936"/>
                <path d="M133.8652,42.6554 C133.2362,42.7594 129.3532,43.6724 126.9732,44.3864 C124.6212,45.1484 121.2562,46.6144 119.5852,47.4794 C117.8622,48.3764 117.7262,49.3464 122.1892,49.0094 C126.6052,48.6014 129.4652,48.6814 129.4652,48.6814 L129.436298,48.7110784 C129.256601,48.8941891 128.271057,49.8779238 127.3862,50.3484 C126.4012,50.8454 126.1842,50.8294 125.0062,50.7654 C123.8122,50.7654 123.8602,51.5264 123.8602,51.5264 C123.8842,52.2394 124.7902,52.1034 124.7902,52.1034 C127.8032,52.0714 128.2232,52.3514 128.2232,52.3514 C126.0482,54.1384 122.5902,54.2104 121.5562,54.3954 C120.4912,54.6034 118.3192,55.3884 117.7262,55.6214 C117.1692,55.8534 115.2662,56.7514 118.0782,57.0234 C120.9072,57.3034 122.6582,56.0384 122.6582,56.0384 C124.2372,55.0844 126.1842,54.8914 126.1842,54.8914 C130.2592,54.3874 132.6632,54.3954 132.6632,54.3954 C132.5022,54.4914 131.2362,55.2854 131.1332,56.3504 C131.0682,57.3684 132.5272,57.0804 134.4422,57.1434 C136.3572,57.1434 144.5232,56.5194 144.5232,56.5194 L140.3162,58.0414 C140.3162,58.0414 139.1902,58.1054 138.3322,58.3454 C137.4792,58.6104 137.8922,58.7224 138.1972,58.9394 C138.4612,59.0994 140.3762,59.3244 140.3762,59.3244 L139.0902,59.8124 L137.8242,59.9574 C69.8092,69.2114 42.7552,101.3384 41.5542,118.3034 C41.2012,123.4634 42.2142,129.7864 50.3322,133.8974 C61.2752,139.4994 109.6362,142.3354 141.5542,103.8144 L146.7272,103.8144 L146.7272,108.1334 L141.3022,108.1334 L141.3022,114.5444 L147.7242,114.5444 L147.7242,109.1914 L157.4892,109.1914 L157.4892,114.5444 L162.9142,114.5444 C140.0722,133.6974 118.3472,139.6744 106.6832,142.9444 C89.9712,147.6164 50.4202,153.3774 36.9092,134.1624 C32.5822,127.9834 30.5312,118.8074 33.6042,109.1274 C38.8452,92.4674 56.4392,73.5874 80.2662,59.7084 C112.7012,40.7804 133.8652,42.6554 133.8652,42.6554 Z M115.7944,60.5419 C115.7944,60.5419 114.8814,61.1269 115.1904,61.6879 C115.4664,62.2249 116.3914,62.0639 117.1324,61.5919 C118.0064,61.0699 119.2084,61.5669 119.2084,61.5669 C119.2084,61.5669 118.2504,59.0999 115.7944,60.5419 Z M112.4845,51.5268 C110.0765,52.2388 109.3275,53.7228 110.8625,53.9058 C112.3455,54.0828 114.4805,53.6178 115.9825,52.5118 C117.5375,51.4388 117.4575,51.4228 117.4575,51.4228 C117.4575,51.4228 114.8605,50.8288 112.4845,51.5268 Z" id="Combined-Shape" fill="#6D6865"/>
                <polygon id="Fill-106" fill="#1A1919" points="3.8142 101.2416 69.8092 101.2416 69.8092 98.8866 3.8142 98.8866"/>
                <path d="M3.814,103.8144 C5.834,103.8144 7.504,102.1074 7.504,100.0554 C7.504,97.9404 5.834,96.2824 3.814,96.2824 C1.71,96.2824 7.10542736e-15,97.9404 7.10542736e-15,100.0554 C7.10542736e-15,102.1074 1.71,103.8144 3.814,103.8144" id="Fill-107" fill="#C6302E"/>
                <polygon id="Fill-108" fill="#1A1919" points="98.77 3.8056 98.77 68.9796 101.122 68.1946 101.122 3.8056"/>
                <path d="M99.9483,7.58 C101.9713,7.58 103.6423,5.809 103.6423,3.806 C103.6423,1.683 101.9713,8.81072992e-13 99.9483,8.81072992e-13 C97.8563,8.81072992e-13 96.1573,1.683 96.1573,3.806 C96.1573,5.809 97.8563,7.58 99.9483,7.58" id="Fill-109" fill="#C6302E"/>
                <polygon id="Fill-110" fill="#1A1919" points="98.77 132.6874 98.77 196.4424 101.122 196.4424 101.122 131.8944"/>
                <path d="M99.9483,200.2167 C101.9713,200.2167 103.6423,198.5417 103.6423,196.4427 C103.6423,194.4317 101.9713,192.7077 99.9483,192.7077 C97.8563,192.7077 96.1573,194.4317 96.1573,196.4427 C96.1573,198.5417 97.8563,200.2167 99.9483,200.2167" id="Fill-111" fill="#C6302E"/>
                <path d="M441.5278,154.9892 C441.5028,153.2822 441.0828,151.9272 440.2898,151.0132 C439.5238,150.0282 438.5178,149.3152 437.3128,148.8182 C436.1058,148.3302 434.8478,147.9362 433.5918,147.6562 C431.7308,147.2482 430.4808,146.8472 429.7838,146.4552 C429.0748,146.0702 428.7778,145.5412 428.8168,144.7872 C428.7778,144.2592 429.0178,143.7612 429.5478,143.3612 C430.0548,142.8962 430.9418,142.6792 432.2038,142.6722 C433.2488,142.6722 434.2468,142.8812 435.1278,143.3212 C435.9988,143.7302 436.8188,144.3232 437.5888,145.1242 L440.9948,141.7992 C439.8968,140.6132 438.6258,139.7312 437.2368,139.0572 C435.8048,138.4172 434.1978,138.0722 432.3598,138.0722 C430.8008,138.0722 429.3498,138.3772 428.0918,138.9142 C426.8008,139.4672 425.8048,140.2602 425.0508,141.3092 C424.2898,142.3352 423.9088,143.5702 423.8848,145.0042 C423.8848,146.5432 424.2098,147.8082 424.8348,148.7062 C425.4728,149.6522 426.3458,150.3412 427.4438,150.8382 C428.5688,151.3432 429.8328,151.8002 431.3148,152.1122 C432.7958,152.4252 433.8888,152.7532 434.6548,153.0412 C435.4458,153.3702 435.9378,153.6902 436.2388,154.0432 C436.4908,154.3962 436.6278,154.8372 436.6038,155.3252 C436.6038,156.2392 436.2738,156.8472 435.5938,157.2972 C434.9008,157.7062 433.8658,157.8982 432.4438,157.8982 C431.3148,157.8982 430.2328,157.7062 429.1818,157.2722 C428.1448,156.8402 427.2148,156.1582 426.4088,155.1892 L422.9518,158.2262 C423.8848,159.5642 425.1388,160.6142 426.7508,161.3762 C428.3678,162.1292 430.2038,162.5212 432.2038,162.5612 C435.4278,162.5212 437.7718,161.8242 439.2838,160.4782 C440.7898,159.0992 441.5278,157.2722 441.5278,154.9892" id="Fill-112" fill="#1A1919"/>
                <path d="M459.5454,150.2851 C459.5454,151.3351 459.4984,152.3121 459.3204,153.1931 C459.1904,154.0751 458.9124,154.8611 458.5654,155.5171 L457.0334,153.2581 L453.4244,155.6301 L454.9844,158.0181 C454.8934,158.0341 454.7664,158.0341 454.6214,158.0661 L454.2134,158.0661 C452.2974,158.0341 450.8994,157.2721 450.0004,155.8381 C449.1234,154.3721 448.6844,152.5371 448.6844,150.2851 C448.6624,148.1381 449.0964,146.3501 449.9774,144.9641 C450.8224,143.5381 452.2134,142.8241 454.1334,142.7761 C456.0184,142.8241 457.4104,143.5381 458.2754,144.9641 C459.1414,146.3501 459.5454,148.1381 459.5454,150.2851 M464.4184,150.2851 C464.4184,147.8961 463.9964,145.7581 463.1804,143.9231 C462.3584,142.0871 461.2154,140.6691 459.6624,139.6191 C458.1314,138.6011 456.2914,138.0721 454.1334,138.0721 C451.9494,138.0721 450.1134,138.6011 448.5474,139.6191 C447.0534,140.6691 445.8424,142.0871 445.0534,143.9231 C444.2314,145.7581 443.8224,147.8961 443.8224,150.2851 C443.8224,152.7291 444.2314,154.8611 445.0534,156.7041 C445.8424,158.5311 447.0534,159.9491 448.5474,160.9591 C450.1134,162.0091 451.9494,162.5211 454.1334,162.5611 C454.7934,162.5611 455.3814,162.5061 455.9714,162.3931 C456.5434,162.3061 457.1134,162.1291 457.6254,161.8961 L459.3544,164.3811 L462.9754,162.0091 L461.2154,159.4361 C462.2174,158.3701 463.0474,157.1201 463.6044,155.6051 C464.1334,154.0921 464.4184,152.3201 464.4184,150.2851" id="Fill-113" fill="#1A1919"/>
                <path d="M486.9556,151.6796 L486.9556,138.4166 L482.2266,138.4166 L482.2266,151.7916 C482.1956,153.6906 481.7546,155.1896 480.9106,156.2706 C480.0316,157.3536 478.8576,157.8986 477.3266,157.8986 C475.8056,157.8816 474.6276,157.3286 473.7666,156.2396 C472.9206,155.1016 472.4826,153.6506 472.4826,151.6796 L472.4826,138.4166 L467.7236,138.4166 L467.7236,151.7916 C467.7796,155.2536 468.6526,157.8986 470.3836,159.7336 C472.0946,161.6236 474.3986,162.5216 477.3266,162.5616 C480.3516,162.5216 482.7446,161.5596 484.4066,159.7006 C486.0746,157.8496 486.9286,155.1576 486.9556,151.6796" id="Fill-114" fill="#1A1919"/>
                <path d="M502.7896,152.3769 L497.3776,152.3769 L498.9086,148.0889 C499.1236,147.3519 499.3676,146.6879 499.5576,146.0219 C499.7816,145.3639 499.9456,144.8359 500.0826,144.3789 C500.1896,144.8359 500.3896,145.3639 500.5786,146.0219 C500.8036,146.6879 501.0216,147.3519 501.2506,148.0889 L502.7896,152.3769 Z M511.5196,162.1769 L502.4906,138.4169 L497.8656,138.4169 L488.7956,162.1769 L493.8676,162.1769 L495.7216,156.9039 L504.3966,156.9039 L506.2836,162.1769 L511.5196,162.1769 Z" id="Fill-115" fill="#1A1919"/>
                <path d="M528.9107,146.0702 C528.9107,147.0952 528.6097,147.8732 528.0337,148.3852 C527.4477,148.8982 526.6117,149.1472 525.5127,149.1472 L519.2777,149.1472 L519.2777,143.0242 L525.5127,143.0242 C526.5517,143.0242 527.4007,143.3052 527.9807,143.7612 C528.6097,144.2582 528.8817,145.0042 528.9107,146.0702 L528.9107,146.0702 Z M533.7857,162.1762 L529.2427,152.9452 C530.7407,152.3772 531.8877,151.5102 532.6377,150.3412 C533.4267,149.2032 533.7857,147.7532 533.7857,145.9732 C533.7857,144.2832 533.3967,142.8812 532.6687,141.7502 C531.9437,140.6692 530.9657,139.8352 529.7037,139.2822 C528.5007,138.7212 527.1397,138.4172 525.6257,138.4172 L514.5457,138.4172 L514.5457,162.1762 L519.2777,162.1762 L519.2777,153.6502 L524.1017,153.6502 L528.3447,162.1762 L533.7857,162.1762 Z" id="Fill-116" fill="#1A1919"/>
                <polygon id="Fill-117" fill="#1A1919" points="554.3774 162.1767 554.3774 157.5217 542.1484 157.5217 542.1484 151.7997 548.9574 151.7997 548.9574 147.1997 542.1484 147.1997 542.1484 143.0727 553.8564 143.0727 553.8564 138.4167 537.3974 138.4167 537.3974 162.1767"/>
                <polygon id="Fill-118" fill="#1A1919" points="446.6431 201.3232 446.6431 171.8422 442.2331 171.8422 442.2331 183.7732 428.6681 183.7732 428.6681 171.8422 424.2661 171.8422 424.2661 201.3232 428.6681 201.3232 428.6681 188.1252 442.2331 188.1252 442.2331 201.3232"/>
                <path d="M464.6939,195.0566 C464.1779,195.7936 463.4279,196.4106 462.5299,196.9956 C461.5689,197.5246 460.5359,197.8446 459.3539,197.8616 C457.9069,197.8616 456.8659,197.5006 456.1589,196.8436 C455.4339,196.1946 455.0939,195.3286 455.0939,194.2146 C455.1099,193.1896 455.5219,192.3646 456.3559,191.8026 C457.1409,191.2266 458.2389,190.9456 459.6369,190.9126 C460.8069,190.9126 461.7859,191.0256 462.6059,191.1776 C463.4089,191.3466 464.1139,191.6026 464.6939,191.9076 L464.6939,195.0566 Z M468.9299,201.3236 L468.9299,186.1536 C468.9009,183.6686 468.1389,181.8186 466.6329,180.5606 C465.1549,179.3736 463.1589,178.7566 460.6389,178.7816 C459.1099,178.7816 457.7189,178.9416 456.4789,179.2616 C455.2469,179.5746 454.1329,180.0786 453.0899,180.7366 L454.7659,184.0376 C455.6099,183.5256 456.5159,183.1726 457.4339,182.9636 C458.3799,182.7236 459.4129,182.6276 460.5359,182.6276 C461.8969,182.6276 462.9229,182.9636 463.6259,183.5806 C464.3459,184.2386 464.6939,185.1676 464.6939,186.3616 L464.6939,188.0046 C463.4809,187.4756 461.8439,187.2026 459.7579,187.2026 C457.2209,187.1626 455.1099,187.7636 453.5079,188.9106 C451.8679,190.0556 451.0399,191.8746 450.9749,194.3196 C451.0059,196.1296 451.3989,197.5806 452.1569,198.6946 C452.9259,199.7846 453.8829,200.5696 455.0609,201.0506 C456.2349,201.5556 457.4109,201.7956 458.6369,201.7716 C459.8499,201.7396 460.9749,201.5066 462.0009,201.0016 C463.0479,200.5376 463.9169,199.8886 464.6939,199.1116 L464.6939,201.3236 L468.9299,201.3236 Z" id="Fill-119" fill="#1A1919"/>
                <polygon id="Fill-120" fill="#1A1919" points="478.0689 201.3232 478.0689 170.6472 473.7329 172.9072 473.7329 201.3232"/>
                <polygon id="Fill-121" fill="#1A1919" points="487.5532 201.3232 487.5532 170.6472 483.2332 172.9072 483.2332 201.3232"/>
                <path d="M516.4575,190.288 C516.4495,192.364 515.9775,194.087 514.9945,195.513 C514.0065,196.884 512.6895,197.612 511.0575,197.677 C509.3575,197.629 508.0395,197.012 507.0535,195.729 C506.0665,194.447 505.5625,192.58 505.5215,190.176 C505.5625,187.916 506.0125,186.178 506.9455,184.888 C507.8755,183.581 509.1605,182.9 510.8245,182.876 C512.5825,182.9 513.9805,183.581 514.9675,184.888 C515.9535,186.21 516.4495,188.005 516.4575,190.288 M520.8325,190.176 C520.7935,186.683 519.8345,183.901 518.0275,181.858 C516.2255,179.847 513.8655,178.797 510.9965,178.781 C508.1545,178.797 505.8185,179.791 503.9965,181.818 C502.1565,183.798 501.2075,186.65 501.1505,190.288 C501.2075,193.782 502.1335,196.579 503.9435,198.63 C505.7195,200.674 508.0105,201.724 510.8835,201.771 C513.7605,201.739 516.1455,200.722 518.0005,198.711 C519.8345,196.724 520.7935,193.839 520.8325,190.176" id="Fill-122" fill="#1A1919"/>
                <path d="M534.2759,174.9667 L534.2759,171.1597 C533.7859,171.0557 533.2859,170.9437 532.7139,170.8797 C532.1309,170.8157 531.5589,170.7507 530.9989,170.7507 C529.4069,170.7507 528.0609,171.1597 527.0319,172.0417 C525.9949,172.8827 525.4359,174.3097 525.4049,176.3127 L525.4049,179.2297 L522.5399,179.2297 L522.5399,183.2527 L525.4049,183.2527 L525.4049,201.3227 L529.7309,201.3227 L529.7309,183.2527 L533.7989,183.2527 L533.7989,179.2297 L529.7309,179.2297 L529.7309,176.6967 C529.7039,175.9117 529.8869,175.3517 530.1919,175.0227 C530.5199,174.6867 531.0489,174.5177 531.7559,174.5177 C532.1119,174.5177 532.5279,174.5817 532.9049,174.6387 C533.3089,174.7347 533.7859,174.8387 534.2759,174.9667" id="Fill-123" fill="#1A1919"/>
                <path d="M565.7524,180.8007 C565.7254,182.3787 565.2644,183.5567 564.3614,184.3507 C563.4554,185.1197 562.2274,185.5047 560.7484,185.5047 L552.1684,185.5047 L552.1684,176.0077 L560.7484,176.0077 C562.2504,176.0077 563.4554,176.4417 564.3954,177.2347 C565.2644,178.0677 565.7254,179.2297 565.7524,180.8007 M570.2194,180.6487 C570.1884,178.6447 569.7584,176.9467 568.8974,175.6717 C568.0274,174.3977 566.9144,173.4047 565.4774,172.8187 C564.0534,172.1777 562.4794,171.8417 560.7484,171.8417 L547.8184,171.8417 L547.8184,201.3227 L552.1684,201.3227 L552.1684,189.6477 L558.8134,189.6477 L564.6584,201.3227 L569.7584,201.3227 L563.7324,189.2707 C565.7524,188.7747 567.3384,187.7877 568.4614,186.3617 C569.6114,184.8877 570.1884,183.0037 570.2194,180.6487" id="Fill-124" fill="#1A1919"/>
                <path d="M587.2817,188.2294 L576.9927,188.2294 C577.1917,186.4584 577.7367,185.0874 578.5907,184.1334 C579.4677,183.1724 580.6017,182.6834 582.0647,182.6834 C583.8347,182.7154 585.1157,183.2524 585.9147,184.3264 C586.7347,185.3524 587.1687,186.6824 587.2817,188.2294 M591.6357,189.8394 C591.6357,187.7884 591.2997,186.0004 590.6467,184.2934 C589.9657,182.6274 588.9277,181.3214 587.5527,180.3034 C586.1937,179.2864 584.4437,178.7964 582.3617,178.7814 C579.4677,178.7814 577.1077,179.7434 575.3597,181.7294 C573.6057,183.6684 572.6957,186.5134 572.6727,190.2884 C572.6957,192.7554 573.1487,194.8324 573.9867,196.5144 C574.8637,198.2134 576.0107,199.5364 577.4617,200.4334 C578.8837,201.3234 580.4697,201.7714 582.2247,201.7714 C583.8907,201.7714 585.3407,201.5064 586.5667,201.0014 C587.7977,200.5214 588.8947,199.7924 589.8447,198.8784 L587.2817,196.1064 C586.5397,196.6594 585.8047,197.0684 585.0157,197.4044 C584.2527,197.6844 583.3947,197.8614 582.4657,197.8614 C581.1057,197.8934 579.9047,197.4044 578.8497,196.4114 C577.8207,195.4574 577.1917,193.9114 576.9397,191.8024 L591.5237,191.8024 C591.5237,191.5624 591.5747,191.2574 591.5957,190.9454 C591.6357,190.5924 591.6357,190.2324 591.6357,189.8394" id="Fill-125" fill="#1A1919"/>
                <path d="M610.4204,195.2646 C610.4204,193.8866 610.1474,192.7646 609.5824,191.9076 C609.0254,191.0256 608.2074,190.2876 607.1174,189.6706 C605.9964,189.0776 604.6214,188.4616 602.9864,187.8526 C601.3364,187.2266 600.2504,186.6506 599.6664,186.1536 C599.1254,185.6646 598.8444,185.1676 598.9044,184.6556 C598.8754,184.0456 599.1254,183.5566 599.6174,183.2046 C600.1064,182.8436 600.8674,182.6276 601.9164,182.6276 C602.9864,182.6276 603.9734,182.7876 604.8914,183.0926 C605.8324,183.4206 606.7544,183.8856 607.6544,184.5026 L609.5554,181.2016 C608.5244,180.4556 607.3954,179.8956 606.0964,179.4466 C604.8114,179.0136 603.4754,178.7816 602.0534,178.7816 C599.7814,178.7816 598.0024,179.2616 596.6314,180.2716 C595.2584,181.3216 594.5684,182.7876 594.5334,184.7586 C594.5004,186.4656 594.9614,187.8526 595.9514,188.8626 C596.9694,189.9106 598.6274,190.8416 600.9864,191.7396 C602.5984,192.2996 603.8854,192.8606 604.7624,193.3896 C605.6644,193.9106 606.0964,194.5996 606.1254,195.4326 C606.1254,196.2266 605.8034,196.7866 605.1394,197.2286 C604.4834,197.6286 603.4754,197.8616 602.0724,197.8616 C601.0634,197.8616 599.9714,197.6766 598.8444,197.3086 C597.7584,196.9316 596.6884,196.4106 595.6434,195.6646 L593.6474,198.9586 C594.8054,199.7926 596.1394,200.4976 597.6174,200.9706 C599.1004,201.5066 600.6004,201.7716 602.1294,201.7716 C603.6004,201.7956 604.9554,201.5866 606.2054,201.1546 C607.4414,200.7456 608.4714,200.0736 609.2174,199.1116 C610.0064,198.1496 610.3914,196.8836 610.4204,195.2646" id="Fill-126" fill="#1A1919"/>
                <path d="M614.5032,201.3236 L618.8172,201.3236 L618.8172,179.2296 L614.5032,179.2296 L614.5032,201.3236 Z M619.4672,173.5726 C619.4502,172.7706 619.1742,172.1216 618.6602,171.5616 C618.1042,171.0556 617.4712,170.7756 616.6862,170.7506 C615.8972,170.7756 615.2372,171.0556 614.7072,171.5616 C614.1662,172.1216 613.8892,172.7706 613.8692,173.5726 C613.8892,174.3666 614.1662,175.0226 614.7072,175.5196 C615.2372,176.0646 615.8972,176.3206 616.6862,176.3686 C617.4712,176.3206 618.1042,176.0646 618.6602,175.5196 C619.1742,175.0226 619.4502,174.3666 619.4672,173.5726 L619.4672,173.5726 Z" id="Fill-127" fill="#1A1919"/>
                <path d="M637.1157,194.9677 C636.5747,195.7047 635.8347,196.3547 634.9887,196.9077 C634.1077,197.4607 633.1547,197.7247 632.1117,197.7807 C630.5217,197.7807 629.2877,197.1487 628.4497,195.8577 C627.5647,194.5837 627.1607,192.5557 627.1607,189.7907 C627.1607,187.4277 627.5647,185.6647 628.3907,184.5027 C629.2077,183.3567 630.3857,182.7717 631.9477,182.7717 C633.0667,182.7877 634.0807,183.1157 635.0157,183.7087 C635.9027,184.3257 636.6237,184.9507 637.1157,185.6647 L637.1157,194.9677 Z M641.3867,201.3227 L641.3867,170.6477 L637.0807,172.8587 L637.0807,181.2967 C636.4677,180.5837 635.6707,179.9987 634.6837,179.5017 C633.7227,179.0137 632.6527,178.7807 631.5397,178.7807 C629.9697,178.7567 628.5547,179.1657 627.2407,179.9587 C625.9187,180.7607 624.8517,182.0017 624.0627,183.6687 C623.2817,185.3127 622.8367,187.3877 622.8367,189.9107 C622.8887,194.0867 623.6857,197.1237 625.2797,199.0067 C626.8597,200.8657 628.8867,201.8277 631.3227,201.7717 C632.4657,201.7717 633.5357,201.5067 634.4517,201.0337 C635.4267,200.5697 636.2917,199.9687 637.0807,199.2317 L637.0807,201.3227 L641.3867,201.3227 Z" id="Fill-128" fill="#1A1919"/>
                <path d="M659.6587,188.2294 L649.3967,188.2294 C649.5947,186.4584 650.1117,185.0874 650.9637,184.1334 C651.8087,183.1724 652.9827,182.6834 654.4337,182.6834 C656.2057,182.7154 657.4947,183.2524 658.3167,184.3264 C659.1337,185.3524 659.5747,186.6824 659.6587,188.2294 M664.0257,189.8394 C664.0257,187.7884 663.7017,186.0004 663.0197,184.2934 C662.3267,182.6274 661.3017,181.3214 659.9147,180.3034 C658.5607,179.2864 656.8307,178.7964 654.7347,178.7814 C651.8087,178.7814 649.5067,179.7434 647.7587,181.7294 C646.0127,183.6684 645.1017,186.5134 645.0517,190.2884 C645.0747,192.7554 645.5067,194.8324 646.4007,196.5144 C647.2367,198.2134 648.3877,199.5364 649.8347,200.4334 C651.2567,201.3234 652.8427,201.7714 654.5947,201.7714 C656.2657,201.7714 657.7427,201.5064 658.9357,201.0014 C660.1727,200.5214 661.2697,199.7924 662.2197,198.8784 L659.6587,196.1064 C658.9357,196.6594 658.1767,197.0684 657.3877,197.4044 C656.6137,197.6844 655.7797,197.8614 654.8677,197.8614 C653.4677,197.8934 652.2627,197.4044 651.2567,196.4114 C650.2157,195.4574 649.5947,193.9114 649.3167,191.8024 L663.9007,191.8024 C663.9297,191.5624 663.9457,191.2574 663.9767,190.9454 C664.0257,190.5924 664.0257,190.2324 664.0257,189.8394" id="Fill-129" fill="#1A1919"/>
                <path d="M685.5298,201.3232 L685.5298,188.6542 C685.5298,185.3522 684.8778,182.9002 683.5358,181.2412 C682.1878,179.5742 680.2568,178.7812 677.6858,178.7812 C676.4988,178.7812 675.4358,178.9972 674.4478,179.4462 C673.4688,179.8952 672.6758,180.5202 672.0958,181.3372 L672.0958,179.2292 L667.7758,179.2292 L667.7758,201.3232 L672.0958,201.3232 L672.0958,188.3972 C672.1238,186.5942 672.5118,185.2002 673.2978,184.2382 C674.0978,183.2532 675.1878,182.7712 676.6668,182.7712 C678.1218,182.7162 679.2078,183.1732 680.0048,184.1012 C680.7978,185.0312 681.2018,186.6342 681.2018,188.7902 L681.2018,201.3232 L685.5298,201.3232 Z" id="Fill-130" fill="#1A1919"/>
                <path d="M706.5669,182.5077 C705.5239,181.2967 704.3699,180.3437 703.0629,179.6947 C701.8049,179.0697 700.3229,178.7807 698.7149,178.7807 C695.9669,178.7807 693.6799,179.7907 691.8639,181.8187 C690.0459,183.7977 689.1039,186.6507 689.0279,190.3447 C689.1039,193.8387 690.0459,196.6117 691.7879,198.6297 C693.5999,200.6737 695.8369,201.7237 698.6079,201.7717 C700.5689,201.7387 702.1629,201.3307 703.4169,200.5377 C704.6429,199.7527 705.6839,198.7907 706.5059,197.6767 L703.7129,194.9367 C702.8909,195.8337 702.1019,196.5147 701.3499,196.9477 C700.5919,197.4117 699.7269,197.6767 698.7149,197.6767 C696.9889,197.6117 695.6719,196.9317 694.7859,195.5527 C693.8719,194.1917 693.4319,192.4197 693.4109,190.2247 C693.4319,187.9157 693.8969,186.1297 694.8419,184.8307 C695.7269,183.5567 696.9889,182.9007 698.6079,182.8757 C699.5669,182.8757 700.4829,183.0927 701.3499,183.5257 C702.2099,183.9657 703.0879,184.6547 703.9889,185.5607 L706.5669,182.5077 Z" id="Fill-131" fill="#1A1919"/>
                <path d="M723.2974,188.2294 L713.0164,188.2294 C713.2294,186.4584 713.7174,185.0874 714.6114,184.1334 C715.4554,183.1724 716.6024,182.6834 718.0764,182.6834 C719.8324,182.7154 721.1294,183.2524 721.9554,184.3264 C722.7624,185.3524 723.1904,186.6824 723.2974,188.2294 M727.6784,189.8394 C727.6784,187.7884 727.3324,186.0004 726.6354,184.2934 C725.9534,182.6274 724.9404,181.3214 723.5474,180.3034 C722.1764,179.2864 720.4574,178.7964 718.3774,178.7814 C715.4554,178.7814 713.1254,179.7434 711.3734,181.7294 C709.6314,183.6684 708.7214,186.5134 708.7014,190.2884 C708.7014,192.7554 709.1494,194.8324 710.0024,196.5144 C710.8814,198.2134 712.0314,199.5364 713.4614,200.4334 C714.8994,201.3234 716.4944,201.7714 718.2404,201.7714 C719.9124,201.7714 721.3544,201.5064 722.5924,201.0014 C723.8224,200.5214 724.8894,199.7924 725.8504,198.8784 L723.2974,196.1064 C722.5724,196.6594 721.7954,197.0684 721.0574,197.4044 C720.2684,197.6844 719.4144,197.8614 718.4864,197.8614 C717.1114,197.8934 715.9244,197.4044 714.8754,196.4114 C713.8384,195.4574 713.2094,193.9114 712.9364,191.8024 L727.5454,191.8024 C727.5654,191.5624 727.5924,191.2574 727.6254,190.9454 C727.6454,190.5924 727.6784,190.2324 727.6784,189.8394" id="Fill-132" fill="#1A1919"/>
            </g>
            <path d="M83.1608421,88.5002783 C82.1371394,86.1878349 83.184108,83.4705683 85.4932556,82.4293862 C87.8198526,81.408591 90.5390628,82.4468606 91.568582,84.7680412 C92.6140965,87.0906781 91.568582,89.8108571 89.241985,90.8447581 C86.9241127,91.8815716 84.2034483,90.8243714 83.1608421,88.5002783" id="Fill-57" fill="#FFFFFE"/>
        </g>
    </g>
</svg>